<?xml version="1.0" encoding="utf-8"?>
<!-- Generator: Adobe Illustrator 21.1.0, SVG Export Plug-In . SVG Version: 6.00 Build 0)  -->
<svg version="1.1" id="Forma_1_1_" xmlns="http://www.w3.org/2000/svg" xmlns:xlink="http://www.w3.org/1999/xlink" x="0px" y="0px"
	 viewBox="0 0 42 45.6" style="enable-background:new 0 0 42 45.6;" xml:space="preserve">
<style type="text/css">
	.st0{clip-path:url(#SVGID_2_);fill:#FFFFFF;}
</style>
<g>
	<g>
		<g>
			<defs>
				<rect id="SVGID_1_" x="1" y="9.9" width="39.9" height="27.6"/>
			</defs>
			<clipPath id="SVGID_2_">
				<use xlink:href="#SVGID_1_"  style="overflow:visible;"/>
			</clipPath>
			<path class="st0" d="M21.1,26L21.1,26c0.3,0,0.6-0.1,0.8-0.2H22l0,0l0.8-0.6L41,10c0-0.1-0.1-0.1-0.2-0.1H1.2H1.1l19,15.7
				C20.4,25.9,20.7,26,21.1,26L21.1,26z M1,12v22.3l13.6-11L1,12z M27.4,23.4l13.6,11V12.1L27.4,23.4z M23.1,26.9
				c-0.5,0.4-1.3,0.7-2,0.7s-1.5-0.2-2-0.7L16,24.3L1,36.4l0,0c0,0.1,0.1,0.2,0.2,0.2h39.6c0.1,0,0.2-0.1,0.2-0.2l0,0l-14.9-12
				L23.1,26.9z"/>
		</g>
	</g>
</g>
</svg>
