<?xml version="1.0" encoding="utf-8"?>
<!-- Generator: Adobe Illustrator 22.0.1, SVG Export Plug-In . SVG Version: 6.00 Build 0)  -->
<svg version="1.1" id="Calque_1" xmlns="http://www.w3.org/2000/svg" xmlns:xlink="http://www.w3.org/1999/xlink" x="0px" y="0px"
	 viewBox="0 0 302 298" style="enable-background:new 0 0 302 298;" xml:space="preserve">
<style type="text/css">
	.st0{fill:none;stroke:#1E145F;stroke-width:4;stroke-miterlimit:10;}
	.st1{fill:#1E145F;stroke:#1E145F;stroke-miterlimit:10;}
	.st2{fill:#1E145F;stroke:#1E145F;}
	.st3{clip-path:url(#SVGID_2_);fill:#1E145F;}
	.st4{fill:none;stroke:#1E145F;stroke-width:3;stroke-miterlimit:10;}
	.st5{fill:#1E145F;}
	.st6{fill:none;stroke:#1E145F;stroke-width:0.5;}
</style>
<g id="Calque_3">
	<circle class="st0" cx="148.9" cy="148" r="143"/>
</g>
<rect x="142.5" y="175.3" class="st1" width="57.4" height="6.3"/>
<rect x="73.3" y="157" class="st2" width="8.3" height="65.7"/>
<rect x="169" y="179.4" class="st1" width="5.8" height="42.8"/>
<rect x="216.6" y="163.8" class="st1" width="4.9" height="58.5"/>
<rect x="78.3" y="190.9" class="st2" width="77.9" height="3.4"/>
<rect x="150.3" y="190.9" class="st2" width="7.1" height="30.6"/>
<rect x="186.8" y="192.6" class="st1" width="5.2" height="29.8"/>
<rect x="186.8" y="192.6" class="st1" width="33.8" height="6.8"/>
<polygon class="st1" points="81.2,194.7 152.9,210.4 154.6,192.3 "/>
<g>
	<g>
		<defs>
			<rect id="SVGID_1_" x="3" y="-1.7" width="270" height="284"/>
		</defs>
		<clipPath id="SVGID_2_">
			<use xlink:href="#SVGID_1_"  style="overflow:visible;"/>
		</clipPath>
		<path class="st3" d="M92.1,189.3c4.8,0,8.7-3.9,8.7-8.7c0-4.8-3.9-8.6-8.7-8.6c-4.8,0-8.7,3.9-8.7,8.6
			C83.4,185.4,87.2,189.3,92.1,189.3"/>
	</g>
</g>
<line class="st4" x1="57" y1="77" x2="57" y2="233"/>
<polygon class="st5" points="45.3,85.7 58,56.3 68,85.7 "/>
<line class="st4" x1="226.3" y1="231.7" x2="55.5" y2="231.7"/>
<polygon class="st5" points="226.3,222.4 250,232.6 226.3,240.7 "/>
<g id="XMLID_2_">
	<g>
		<polygon class="st5" points="130.3,86.9 182.7,138.8 221.6,138.8 168.2,86 138.4,86.7 167.8,86.7 219.7,138.1 183,138.1 
			131.4,86.9 		"/>
		<polygon class="st5" points="131.1,86.7 131.4,86.9 138.4,86.7 		"/>
		<polygon class="st5" points="131.4,86.9 183,138.1 219.7,138.1 167.8,86.7 138.4,86.7 		"/>
	</g>
	<g>
		<polygon class="st6" points="131.4,86.9 183,138.1 219.7,138.1 167.8,86.7 138.4,86.7 131.1,86.7 		"/>
	</g>
</g>
<path class="st5" d="M170.7,88.6l-54.2,51.8H74.4l56.9-54.3h36.9 M165.9,89h-33.5l-50.6,48.3h33.4L165.9,89z"/>
</svg>
