<?xml version="1.0" encoding="utf-8"?>
<!-- Generator: Adobe Illustrator 22.0.1, SVG Export Plug-In . SVG Version: 6.00 Build 0)  -->
<svg version="1.1" id="Calque_1" xmlns="http://www.w3.org/2000/svg" xmlns:xlink="http://www.w3.org/1999/xlink" x="0px" y="0px"
	 viewBox="0 0 383 370" style="enable-background:new 0 0 383 370;" xml:space="preserve">
<style type="text/css">
	.st0{fill:none;stroke:#1E145F;stroke-width:9;stroke-miterlimit:10;}
	.st1{fill:#1E145F;}
</style>
<g>
	<g id="Calque_3">
		<circle class="st0" cx="178.7" cy="215.5" r="141.6"/>
	</g>
	<g id="Calque_3_1_">
		<path class="st0" d="M178.7,54.4c88.9,0,161.1,72.1,161.1,161.1c0,65-38.5,121-94,146.5"/>
	</g>
	<g id="Calque_3_2_">
		<path class="st0" d="M178,33.4c99.6,0,180.3,80.7,180.3,180.3c0,18.7-2.8,36.7-8.1,53.6"/>
	</g>
	<g id="Calque_3_3_">
		<path class="st0" d="M178,13.2c69.2,0,130.2,35,166.2,88.3"/>
	</g>
	<g>
		<path class="st1" d="M226.9,163.6c-12.4-6-23.2-9.9-37.3-9.9c-24.2,0-39.3,12.2-46,35.2h73.5l-5.6,12.4h-70.4l-0.4,11.6h67.1
			l-5.6,12.4H142c5,25.9,21.1,41.6,48.2,41.6c18.2,0,29.2-6.8,43.7-17.4v21.9c-14.7,10.4-25.9,13.7-43.9,13.7
			c-39.1,0-64.2-21.1-70-59.8h-14.9l5.6-12.4h8.5l0.4-11.6h-14.9l5.6-12.4h11.2c8.1-34.6,33.3-53.6,68.3-53.6
			c17.6,0,30.6,3.7,46.2,12L226.9,163.6z"/>
	</g>
</g>
</svg>
